<?xml version="1.0" encoding="UTF-8" standalone="no"?>
<svg
   xmlns:dc="http://purl.org/dc/elements/1.1/"
   xmlns:cc="http://creativecommons.org/ns#"
   xmlns:rdf="http://www.w3.org/1999/02/22-rdf-syntax-ns#"
   xmlns:svg="http://www.w3.org/2000/svg"
   xmlns="http://www.w3.org/2000/svg"
   xmlns:sodipodi="http://sodipodi.sourceforge.net/DTD/sodipodi-0.dtd"
   xmlns:inkscape="http://www.inkscape.org/namespaces/inkscape"
   version="1.0"
   width="1280.000000pt"
   height="640.000000pt"
   viewBox="0 0 1280.000000 640.000000"
   preserveAspectRatio="xMidYMid meet"
   id="svg47"
   sodipodi:docname="blue_rails2.svg"
   inkscape:version="0.92.3 (2405546, 2018-03-11)">
  <defs
     id="defs51" />
  <sodipodi:namedview
     pagecolor="#ffffff"
     bordercolor="#666666"
     borderopacity="1"
     objecttolerance="10"
     gridtolerance="10"
     guidetolerance="10"
     inkscape:pageopacity="0"
     inkscape:pageshadow="2"
     inkscape:window-width="1920"
     inkscape:window-height="1027"
     id="namedview49"
     showgrid="false"
     inkscape:zoom="0.99023438"
     inkscape:cx="682.66667"
     inkscape:cy="426.66667"
     inkscape:window-x="0"
     inkscape:window-y="28"
     inkscape:window-maximized="1"
     inkscape:current-layer="svg47" />
  <metadata
     id="metadata41">
Created by potrace 1.15, written by Peter Selinger 2001-2017
<rdf:RDF>
  <cc:Work
     rdf:about="">
    <dc:format>image/svg+xml</dc:format>
    <dc:type
       rdf:resource="http://purl.org/dc/dcmitype/StillImage" />
    <dc:title></dc:title>
  </cc:Work>
</rdf:RDF>
</metadata>
  <g
     transform="translate(0.000000,640.000000) scale(0.100000,-0.100000)"
     fill="#2196f3"
     stroke="none"
     id="g45"
     style="fill:#0066cc;stroke:#0000ff;stroke-width:0.99750002;stroke-miterlimit:4;stroke-dasharray:none;fill-opacity:1">
    <path
       d="M313 3638 c0 -7 -1 -38 -1 -69 l-2 -57 -102 -7 c-114 -7 -138 -12 -138 -26 0 -6 45 -7 120 -3 103 6 120 5 120 -8 0 -13 -23 -17 -127 -22 -141 -8 -173 -13 -173 -28 0 -10 212 -3 273 8 25 5 27 3 27 -25 0 -30 -2 -31 -42 -31 -108 0 -208 -13 -208 -27 0 -14 53 -13 203 3 l47 5 0 -54 0 -53 -106 -11 c-109 -12 -125 -16 -108 -33 7 -7 36 -7 84 0 119 15 132 14 128 -12 -3 -21 -10 -24 -83 -31 -151 -15 -188 -22 -193 -36 -4 -12 9 -13 72 -8 42 4 110 10 151 13 l75 7 0 -40 0 -40 -82 -7 c-139 -11 -168 -17 -168 -33 0 -12 11 -14 58 -9 31 3 88 9 126 12 l68 7 -7 -130 c-6 -110 -5 -131 8 -136 17 -6 27 65 27 189 l0 73 33 5 c50 8 1001 65 1086 66 l25 0 -27 -28 c-22 -23 -27 -37 -27 -80 l0 -52 165 0 c140 0 165 2 165 15 0 8 4 15 8 15 5 0 32 33 61 74 l52 74 77 6 c42 3 160 9 262 12 l184 7 -42 -50 c-43 -52 -47 -66 -36 -122 l7 -31 161 0 c150 0 162 1 171 20 6 10 35 59 65 108 l55 89 155 7 c85 3 201 6 258 6 l103 0 -51 -62 c-45 -56 -50 -67 -45 -98 13 -75 -1 -70 178 -70 l162 1 57 112 56 112 189 3 c103 2 225 0 270 -3 l81 -7 -34 -57 -34 -58 21 -51 22 -52 164 0 c141 0 164 2 160 15 -4 8 -2 17 3 20 5 3 21 44 35 91 l26 86 72 -6 c40 -3 144 -8 232 -11 206 -8 200 -6 176 -54 l-19 -37 26 -50 27 -49 162 -3 162 -2 17 80 c16 75 19 80 43 80 50 0 466 -23 470 -26 2 -2 -2 -10 -8 -18 -7 -8 -11 -35 -9 -63 l3 -48 165 3 c91 2 166 5 168 6 1 2 5 27 9 56 l6 53 171 -6 c94 -4 219 -7 278 -7 l106 0 9 -52 8 -53 168 -3 167 -2 0 53 0 54 68 6 c37 4 133 7 213 7 l147 0 12 -47 c7 -27 12 -54 11 -60 -1 -10 36 -13 161 -13 l163 0 28 50 c21 40 25 55 17 70 -9 16 -7 20 12 24 47 10 402 26 408 18 4 -4 15 -35 25 -69 10 -35 22 -63 26 -63 5 0 6 -7 3 -15 -5 -13 16 -15 159 -15 l164 0 22 51 21 51 -26 43 -25 43 38 6 c21 3 99 8 173 11 74 3 151 8 171 11 l37 5 56 -102 c31 -56 56 -106 56 -110 0 -5 74 -9 164 -9 l164 0 11 51 11 51 -51 64 c-28 36 -50 66 -48 68 2 2 103 5 223 7 l219 4 59 -95 c32 -52 65 -103 73 -113 8 -9 15 -22 15 -27 0 -6 62 -10 164 -10 l163 0 6 51 6 52 -64 72 c-36 40 -65 74 -65 76 0 6 458 -5 462 -11 3 -3 37 -51 78 -107 40 -57 77 -103 82 -103 4 0 8 -7 8 -15 0 -13 25 -15 165 -15 l165 0 0 53 c0 53 -1 55 -60 111 -33 32 -60 58 -60 60 0 1 15 1 33 -1 17 -2 140 -12 272 -23 349 -30 1013 -115 1031 -133 3 -2 8 -52 11 -111 5 -94 8 -106 24 -106 15 0 18 6 14 28 -2 15 -6 62 -9 106 l-6 79 53 -8 c76 -12 110 -11 114 1 2 7 -28 16 -79 25 l-83 14 -3 37 -3 36 60 -13 c57 -12 61 -11 61 6 0 11 -7 19 -15 19 -7 0 -37 5 -65 11 -46 10 -50 13 -50 40 0 35 9 36 123 14 44 -8 83 -13 88 -9 23 14 1 24 -91 40 -54 10 -104 20 -110 24 -5 3 -13 28 -16 55 -7 47 -7 48 17 42 13 -3 53 -9 88 -13 52 -6 63 -4 59 7 -3 9 -31 17 -86 23 -77 8 -82 10 -82 32 0 23 2 23 60 17 68 -7 87 12 23 22 -89 15 -93 16 -93 37 0 19 4 20 43 15 119 -16 177 -19 177 -9 0 6 -15 13 -32 16 -33 6 -186 26 -194 26 -2 0 -4 15 -4 34 0 48 -11 96 -22 96 -5 0 -8 -28 -7 -62 2 -57 1 -63 -17 -61 -114 14 -573 56 -734 67 -733 53 -1323 67 -1990 45 -179 -5 -419 -10 -535 -10 -115 0 -212 -4 -215 -8 -3 -4 -115 -13 -250 -19 -239 -11 -245 -10 -262 9 -15 18 -27 19 -110 17 -84 -3 -94 -5 -102 -25 -9 -20 -18 -21 -185 -27 -97 -3 -213 -9 -258 -12 l-83 -5 -17 35 -17 36 -92 0 c-85 0 -94 -2 -108 -22 -9 -12 -16 -30 -16 -40 0 -17 -17 -18 -259 -18 l-258 0 -14 36 -14 36 -95 0 -95 0 -3 -36 -3 -36 -230 0 -229 0 0 40 0 40 -95 0 -95 0 -15 -36 -15 -36 -137 6 c-76 3 -207 9 -291 12 -149 6 -154 7 -164 30 -11 23 -16 24 -109 24 -91 0 -98 -1 -104 -21 -7 -21 -11 -21 -104 -16 -53 4 -188 10 -301 13 -113 4 -210 10 -215 15 -13 9 -1938 4 -2242 -6 -166 -6 -223 -5 -223 4 0 17 -184 15 -199 -3 -12 -14 -34 -16 -586 -36 -475 -18 -968 -40 -1032 -46 l-63 -6 0 71 c0 54 -3 71 -14 71 -8 0 -14 -6 -13 -12z m10822 -53 c319 -12 805 -47 1130 -80 77 -8 168 -18 203 -21 57 -6 62 -9 62 -30 0 -20 -4 -23 -27 -19 -186 33 -963 94 -1457 115 -143 7 -245 15 -253 22 -30 25 -11 30 90 24 56 -3 170 -8 252 -11z m-9178 -49 c-16 -16 -79 -20 -532 -36 -414 -15 -1003 -39 -1047 -44 -31 -3 -38 -1 -38 13 0 20 101 26 980 61 589 23 655 24 637 6z m9473 -32 c363 -22 605 -44 1037 -90 54 -6 62 -9 66 -30 5 -27 8 -27 -89 -14 -293 38 -962 89 -1396 106 -161 6 -167 7 -190 31 l-23 25 180 -6 c99 -4 286 -14 415 -22z m-9549 -38 c-28 -30 -43 -31 -486 -46 -176 -6 -457 -18 -625 -26 -408 -19 -410 -19 -410 5 0 11 4 22 9 25 12 8 1186 60 1445 65 l89 1 -22 -24z m7988 -35 l21 -29 -168 -6 c-92 -3 -201 -9 -243 -12 -77 -5 -77 -5 -99 25 -12 17 -20 32 -18 33 2 0 93 4 203 8 110 3 219 7 242 8 36 2 45 -2 62 -27z m784 4 l18 -25 -249 0 -249 0 -23 25 -23 25 254 0 254 -1 18 -24z m-7113 8 c-1 -5 -9 -17 -18 -29 -17 -20 -30 -21 -296 -28 l-277 -8 15 31 c16 29 18 30 99 34 174 7 477 7 477 0z m847 -7 c1 -1 -6 -15 -16 -31 l-18 -30 -274 9 c-151 4 -276 10 -278 12 -2 2 4 15 13 29 l17 25 277 -6 c152 -4 278 -7 279 -8z m7128 -12 c332 -21 580 -42 930 -80 97 -10 95 -9 95 -65 0 -28 -4 -48 -8 -45 -11 7 -397 61 -607 86 -219 25 -609 58 -801 68 -148 8 -151 8 -179 36 l-29 29 185 -7 c101 -4 288 -13 414 -22z m-8852 -26 l-32 -32 -273 -11 c-150 -6 -275 -10 -277 -8 -2 1 7 18 20 37 l24 35 115 4 c63 1 191 4 285 5 l170 2 -32 -32z m2355 16 c111 -4 202 -8 202 -9 0 -1 -7 -16 -16 -33 -14 -28 -20 -32 -57 -32 -52 0 -491 22 -495 25 -1 1 3 16 9 34 l12 33 71 -6 c39 -3 162 -8 274 -12z m4077 -14 c8 -16 15 -31 15 -33 0 -2 -62 -7 -137 -11 -76 -3 -176 -9 -223 -12 l-85 -6 -18 32 c-10 18 -15 35 -12 38 5 5 224 17 367 20 76 2 78 2 93 -28z m-7311 -31 l-41 -40 -449 -25 c-247 -13 -543 -31 -658 -39 -301 -22 -276 -25 -276 34 l0 48 98 6 c168 11 1116 51 1302 56 l65 1 -41 -41z m4266 -5 c0 -10 -16 -56 -26 -72 -2 -3 -385 16 -471 24 -41 4 -61 9 -58 17 2 7 6 23 9 37 l5 25 271 -9 c211 -7 270 -12 270 -22z m2300 0 c7 -19 10 -37 7 -40 -2 -2 -80 -9 -173 -14 -93 -5 -195 -12 -227 -14 l-58 -4 -20 40 c-11 22 -18 42 -16 44 4 4 277 19 419 22 56 2 56 2 68 -34z m-1543 -8 c0 0 3 -21 4 -44 l3 -44 -179 1 c-99 1 -213 4 -252 7 l-73 7 0 37 c0 20 3 39 6 43 5 5 484 -2 491 -7z m760 -28 l9 -43 -61 -7 c-33 -3 -139 -7 -235 -8 l-175 -2 -16 44 -17 43 122 5 c66 3 176 7 243 8 l122 2 8 -42z m3938 1 c310 -26 699 -72 935 -110 114 -18 110 -16 110 -51 0 -36 33 -36 -253 7 -299 45 -708 89 -1132 121 -81 6 -93 10 -125 37 l-34 30 134 -7 c74 -4 239 -16 365 -27z m-9395 -44 c0 -23 -3 -25 -50 -25 l-51 0 18 25 c13 17 28 24 51 25 28 0 32 -3 32 -25z m-426 -19 c-16 -14 -34 -26 -41 -26 -74 -2 -820 -44 -983 -55 -296 -21 -300 -20 -300 8 l0 23 358 23 c405 26 985 58 991 54 2 -1 -10 -13 -25 -27z m9093 -3 c36 -47 36 -53 -2 -53 -33 0 -35 2 -35 35 0 38 15 45 37 18z m679 -23 c293 -25 533 -52 794 -90 316 -46 293 -40 304 -78 5 -18 7 -34 5 -36 -2 -3 -27 0 -54 5 -202 38 -699 98 -1069 129 l-249 21 -38 32 c-20 18 -38 35 -38 39 -1 4 25 5 57 3 31 -3 161 -14 288 -25z m-9346 -49 l0 -40 -87 -3 c-49 -2 -89 -3 -90 -2 -2 0 11 19 28 42 30 41 32 42 90 42 l59 0 0 -39z m-528 -24 l-42 -43 -343 -18 c-188 -10 -453 -25 -589 -34 l-248 -17 0 37 c0 31 4 38 23 42 31 7 567 40 1217 75 23 1 22 -2 -18 -42z"
       id="path43"
       style="fill:#0066cc;stroke:#0000ff;stroke-width:0.99750002;stroke-miterlimit:4;stroke-dasharray:none;fill-opacity:1" />
  </g>
</svg>
